<svg id="Layer_1" data-name="Layer 1" xmlns="http://www.w3.org/2000/svg" xmlns:xlink="http://www.w3.org/1999/xlink" viewBox="0 0 200 200"><defs><style>.cls-1,.cls-3{fill:#d94a3c;}.cls-2{fill:none;}.cls-3{opacity:0.45;}.cls-4{clip-path:url(#clip-path);}.cls-5{mask:url(#mask);}.cls-6{fill:#f88c3e;}.cls-7{fill:#9a815b;}</style><clipPath id="clip-path"><rect class="cls-2" x="36" y="36" width="128" height="128"/></clipPath><mask id="mask" x="42" y="59.46" width="147.97" height="110.44" maskUnits="userSpaceOnUse"><g id="mask0"><path class="cls-1" d="M155.72,90.73C146.63,63.63,120.8,59,105.64,63.54a11.38,11.38,0,0,1-8.1-.51C73.92,51.9,49.2,68.15,43.48,93c-8.95,38.92,24.43,76.41,50.77,69.33a13,13,0,0,1,7.67.3C130,172.52,167.68,126.33,155.72,90.73Z"/></g></mask></defs><title>Michael Thing-01</title><rect class="cls-3" width="200" height="200"/><g class="cls-4"><path class="cls-1" d="M155.72,90.73C146.63,63.63,120.8,59,105.64,63.54a11.38,11.38,0,0,1-8.1-.51C73.92,51.9,49.2,68.15,43.48,93c-8.95,38.92,24.43,76.41,50.77,69.33a13,13,0,0,1,7.67.3C130,172.52,167.68,126.33,155.72,90.73Z"/><g class="cls-5"><path class="cls-6" d="M98.25,126.85c-29.67-3.68-24.8,28.05-54.9-.95l12.1,42.67,132.84,1.33c9.11-13.3-20.81-54.48-42.68-36.2C120.37,154.8,121.54,129.74,98.25,126.85Z"/></g><path class="cls-7" d="M108.85,78.11C102.4,80.7,98,77,96,74.88c1.1-7,3.89-22.75,6.28-30.27,3-9.4,14.34-11.16,19.72-5s3.29,13.51-4.48,18.8S108.48,78.25,108.85,78.11Z"/><path class="cls-6" d="M81.11,77a6,6,0,0,1,6.68,2.27l5.15,7.31a6,6,0,0,1-.1,7l-5.36,7.17a6,6,0,0,1-6.73,2.08L72.28,100a6,6,0,0,1-4.07-5.76l.13-9a6,6,0,0,1,4.22-5.65Z"/><path class="cls-6" d="M58.44,106.27a4,4,0,0,1,4.43-1.58L67,105.9a4,4,0,0,1,2.87,3.73l.11,4.26a4,4,0,0,1-2.66,3.88l-4,1.43a4,4,0,0,1-4.51-1.33l-2.6-3.38a4,4,0,0,1-.13-4.7Z"/></g></svg>